<mxfile host="app.diagrams.net" modified="2022-01-07T01:31:20.625Z" agent="5.0 (X11; Linux mips64) AppleWebKit/537.36 (KHTML, like Gecko) Chrome/90.0.4430.217 Safari/537.36 Lbrowser/3.1.5634.3" etag="-HcwWjOBssvKaTFXeYCv" version="16.2.2" type="github">
  <diagram id="Ght2hsPfRp3fWAOhF1j6" name="第 1 页">
    <mxGraphModel dx="1422" dy="748" grid="0" gridSize="10" guides="1" tooltips="1" connect="1" arrows="1" fold="1" page="1" pageScale="1" pageWidth="827" pageHeight="1169" math="0" shadow="0">
      <root>
        <mxCell id="0" />
        <mxCell id="1" parent="0" />
        <mxCell id="3B9rHXBm2WQj3u6T62J0-99" value="" style="rounded=1;whiteSpace=wrap;html=1;fillColor=#76608a;fontColor=#ffffff;strokeColor=#432D57;" parent="1" vertex="1">
          <mxGeometry x="114" y="522" width="654" height="310" as="geometry" />
        </mxCell>
        <mxCell id="3B9rHXBm2WQj3u6T62J0-64" value="神通数据库优化" style="rounded=1;whiteSpace=wrap;html=1;fillColor=#b1ddf0;strokeColor=#10739e;" parent="1" vertex="1">
          <mxGeometry x="146" y="631" width="120" height="60" as="geometry" />
        </mxCell>
        <mxCell id="3B9rHXBm2WQj3u6T62J0-65" value="WPS Qt优化" style="rounded=1;whiteSpace=wrap;html=1;fillColor=#f8cecc;strokeColor=#b85450;gradientColor=#ea6b66;" parent="1" vertex="1">
          <mxGeometry x="276" y="631" width="155" height="60" as="geometry" />
        </mxCell>
        <mxCell id="3B9rHXBm2WQj3u6T62J0-66" value="Skia 优化" style="rounded=1;whiteSpace=wrap;html=1;fillColor=#e6d0de;gradientColor=#d5739d;strokeColor=#996185;" parent="1" vertex="1">
          <mxGeometry x="440" y="631" width="204" height="60" as="geometry" />
        </mxCell>
        <mxCell id="3B9rHXBm2WQj3u6T62J0-67" value="Linux桌面环境调研" style="rounded=1;whiteSpace=wrap;html=1;fillColor=#d5e8d4;gradientColor=#97d077;strokeColor=#82b366;" parent="1" vertex="1">
          <mxGeometry x="145" y="550" width="220" height="60" as="geometry" />
        </mxCell>
        <mxCell id="3B9rHXBm2WQj3u6T62J0-68" value="p7zip中文乱码" style="rounded=1;whiteSpace=wrap;html=1;fillColor=#ffcccc;strokeColor=#36393d;" parent="1" vertex="1">
          <mxGeometry x="651" y="631" width="80" height="60" as="geometry" />
        </mxCell>
        <mxCell id="3B9rHXBm2WQj3u6T62J0-69" value="Linux应用二进制兼容" style="rounded=1;whiteSpace=wrap;html=1;fillColor=#cdeb8b;strokeColor=#36393d;" parent="1" vertex="1">
          <mxGeometry x="377" y="550" width="353" height="60" as="geometry" />
        </mxCell>
        <mxCell id="3B9rHXBm2WQj3u6T62J0-56" value="" style="rounded=1;whiteSpace=wrap;html=1;fillColor=#b0e3e6;strokeColor=#0e8088;" parent="1" vertex="1">
          <mxGeometry x="404" y="716" width="196" height="75" as="geometry" />
        </mxCell>
        <mxCell id="3B9rHXBm2WQj3u6T62J0-63" value="LibCEF" style="text;html=1;resizable=0;autosize=1;align=center;verticalAlign=middle;points=[];fillColor=none;strokeColor=none;rounded=1;" parent="1" vertex="1">
          <mxGeometry x="469" y="766" width="60" height="20" as="geometry" />
        </mxCell>
        <mxCell id="3B9rHXBm2WQj3u6T62J0-121" value="" style="group;rounded=1;" parent="1" vertex="1" connectable="0">
          <mxGeometry x="144" y="715" width="250" height="75" as="geometry" />
        </mxCell>
        <mxCell id="3B9rHXBm2WQj3u6T62J0-48" value="" style="rounded=1;whiteSpace=wrap;html=1;fillColor=#d0cee2;strokeColor=#56517e;" parent="3B9rHXBm2WQj3u6T62J0-121" vertex="1">
          <mxGeometry width="250" height="75" as="geometry" />
        </mxCell>
        <mxCell id="3B9rHXBm2WQj3u6T62J0-57" value="Electron" style="text;html=1;resizable=0;autosize=1;align=center;verticalAlign=middle;points=[];fillColor=none;strokeColor=none;rounded=1;" parent="3B9rHXBm2WQj3u6T62J0-121" vertex="1">
          <mxGeometry x="95" y="55" width="60" height="20" as="geometry" />
        </mxCell>
        <mxCell id="3B9rHXBm2WQj3u6T62J0-115" value="" style="group;rounded=1;" parent="3B9rHXBm2WQj3u6T62J0-121" vertex="1" connectable="0">
          <mxGeometry x="4" y="4.5" width="148" height="52.75" as="geometry" />
        </mxCell>
        <mxCell id="3B9rHXBm2WQj3u6T62J0-102" value="" style="rounded=1;whiteSpace=wrap;html=1;fontSize=24;fillColor=#ffe6cc;strokeColor=#d79b00;" parent="3B9rHXBm2WQj3u6T62J0-115" vertex="1">
          <mxGeometry width="148" height="51.996624253440714" as="geometry" />
        </mxCell>
        <mxCell id="3B9rHXBm2WQj3u6T62J0-49" value="v6.1.7" style="rounded=1;whiteSpace=wrap;html=1;fillColor=#ffff88;strokeColor=#36393d;" parent="3B9rHXBm2WQj3u6T62J0-115" vertex="1">
          <mxGeometry x="11.139784946236537" y="3.5614126200986913" width="53.884731182795704" height="15.314074266424319" as="geometry" />
        </mxCell>
        <mxCell id="3B9rHXBm2WQj3u6T62J0-52" value="v10.1.0" style="rounded=1;whiteSpace=wrap;html=1;fillColor=#cce5ff;strokeColor=#36393d;" parent="3B9rHXBm2WQj3u6T62J0-115" vertex="1">
          <mxGeometry x="70.75354838709673" y="3.5614126200986913" width="70.88086021505377" height="15.314074266424319" as="geometry" />
        </mxCell>
        <mxCell id="3B9rHXBm2WQj3u6T62J0-53" value="v4.1.3" style="rounded=1;whiteSpace=wrap;html=1;fillColor=#cdeb8b;strokeColor=#36393d;" parent="3B9rHXBm2WQj3u6T62J0-115" vertex="1">
          <mxGeometry x="10.325581395348838" y="20.658658789924683" width="54.70263565891473" height="15.319005453129073" as="geometry" />
        </mxCell>
        <mxCell id="3B9rHXBm2WQj3u6T62J0-54" value="v7.1.3" style="rounded=1;whiteSpace=wrap;html=1;fillColor=#ffcccc;strokeColor=#36393d;" parent="3B9rHXBm2WQj3u6T62J0-115" vertex="1">
          <mxGeometry x="71.13178294573643" y="20.658658789924683" width="70.05333333333334" height="15.319005453129073" as="geometry" />
        </mxCell>
        <mxCell id="3B9rHXBm2WQj3u6T62J0-111" value="loongarch" style="text;html=1;resizable=0;autosize=1;align=center;verticalAlign=middle;points=[];fillColor=none;strokeColor=none;rounded=1;fontSize=12;fontColor=#000000;" parent="3B9rHXBm2WQj3u6T62J0-115" vertex="1">
          <mxGeometry x="37.45336334083519" y="34.75116852765514" width="63" height="18" as="geometry" />
        </mxCell>
        <mxCell id="3B9rHXBm2WQj3u6T62J0-119" value="" style="group;rounded=1;" parent="3B9rHXBm2WQj3u6T62J0-121" vertex="1" connectable="0">
          <mxGeometry x="158" y="3.5" width="87" height="55" as="geometry" />
        </mxCell>
        <mxCell id="3B9rHXBm2WQj3u6T62J0-116" value="" style="rounded=1;whiteSpace=wrap;html=1;fontSize=12;fontColor=#ffffff;fillColor=#6d8764;strokeColor=#3A5431;" parent="3B9rHXBm2WQj3u6T62J0-119" vertex="1">
          <mxGeometry width="87" height="55" as="geometry" />
        </mxCell>
        <mxCell id="3B9rHXBm2WQj3u6T62J0-117" value="V8.1.5" style="rounded=1;whiteSpace=wrap;html=1;fontSize=12;fillColor=#d0cee2;strokeColor=#56517e;" parent="3B9rHXBm2WQj3u6T62J0-119" vertex="1">
          <mxGeometry x="7" y="5.5" width="72" height="25.666666666666664" as="geometry" />
        </mxCell>
        <mxCell id="3B9rHXBm2WQj3u6T62J0-118" value="Mips" style="text;html=1;resizable=0;autosize=1;align=center;verticalAlign=middle;points=[];fillColor=none;strokeColor=none;rounded=1;fontSize=12;fontColor=#000000;" parent="3B9rHXBm2WQj3u6T62J0-119" vertex="1">
          <mxGeometry x="25.5" y="35.75" width="35" height="18" as="geometry" />
        </mxCell>
        <mxCell id="MHwfZjFhnHQxMyveiBYl-4" value="" style="group;rounded=1;" parent="1" vertex="1" connectable="0">
          <mxGeometry x="613" y="717" width="120" height="75" as="geometry" />
        </mxCell>
        <mxCell id="3B9rHXBm2WQj3u6T62J0-55" value="" style="rounded=1;whiteSpace=wrap;html=1;fillColor=#647687;strokeColor=#314354;fontColor=#ffffff;" parent="MHwfZjFhnHQxMyveiBYl-4" vertex="1">
          <mxGeometry width="120" height="75" as="geometry" />
        </mxCell>
        <mxCell id="3B9rHXBm2WQj3u6T62J0-72" value="VsCode" style="text;html=1;resizable=0;autosize=1;align=center;verticalAlign=middle;points=[];fillColor=none;strokeColor=none;rounded=1;fontColor=#000000;" parent="MHwfZjFhnHQxMyveiBYl-4" vertex="1">
          <mxGeometry x="38" y="53" width="53" height="18" as="geometry" />
        </mxCell>
        <mxCell id="3B9rHXBm2WQj3u6T62J0-95" value="1.43" style="rounded=1;whiteSpace=wrap;html=1;fontColor=#ffffff;fillColor=#6a00ff;strokeColor=#3700CC;" parent="MHwfZjFhnHQxMyveiBYl-4" vertex="1">
          <mxGeometry x="43.829999999999984" y="8.399999999999977" width="32.35" height="35.6" as="geometry" />
        </mxCell>
        <mxCell id="3B9rHXBm2WQj3u6T62J0-96" value="1.46" style="rounded=1;whiteSpace=wrap;html=1;fontColor=#ffffff;fillColor=#d80073;strokeColor=#A50040;" parent="MHwfZjFhnHQxMyveiBYl-4" vertex="1">
          <mxGeometry x="81.82000000000005" y="8.399999999999977" width="32.35" height="34.6" as="geometry" />
        </mxCell>
        <mxCell id="3B9rHXBm2WQj3u6T62J0-97" value="1.41" style="rounded=1;whiteSpace=wrap;html=1;fontColor=#ffffff;fillColor=#0050ef;strokeColor=#001DBC;" parent="MHwfZjFhnHQxMyveiBYl-4" vertex="1">
          <mxGeometry x="5.649999999999977" y="8.399999999999977" width="32.35" height="35.6" as="geometry" />
        </mxCell>
        <mxCell id="3eGutTU6NfPmwoGJErxQ-9" value="" style="group" vertex="1" connectable="0" parent="1">
          <mxGeometry x="410" y="719" width="102" height="47" as="geometry" />
        </mxCell>
        <mxCell id="3eGutTU6NfPmwoGJErxQ-1" value="" style="rounded=1;whiteSpace=wrap;html=1;fillColor=#647687;fontColor=#ffffff;strokeColor=#314354;" vertex="1" parent="3eGutTU6NfPmwoGJErxQ-9">
          <mxGeometry width="102" height="47" as="geometry" />
        </mxCell>
        <mxCell id="3B9rHXBm2WQj3u6T62J0-62" value="85.4183" style="rounded=1;whiteSpace=wrap;html=1;fillColor=#f0a30a;strokeColor=#BD7000;fontColor=#000000;" parent="3eGutTU6NfPmwoGJErxQ-9" vertex="1">
          <mxGeometry x="52" y="6.159999999999968" width="44.78" height="20.23" as="geometry" />
        </mxCell>
        <mxCell id="3B9rHXBm2WQj3u6T62J0-59" value="&lt;font color=&quot;#000000&quot;&gt;68.3440&lt;/font&gt;" style="rounded=1;whiteSpace=wrap;html=1;fillColor=#6d8764;strokeColor=#3A5431;fontColor=#ffffff;" parent="3eGutTU6NfPmwoGJErxQ-9" vertex="1">
          <mxGeometry x="2.4399999999999977" y="6.159999999999968" width="46.56" height="20.23" as="geometry" />
        </mxCell>
        <mxCell id="3eGutTU6NfPmwoGJErxQ-2" value="loongarch" style="text;html=1;resizable=0;autosize=1;align=center;verticalAlign=middle;points=[];fillColor=none;strokeColor=none;rounded=0;rotation=0;" vertex="1" parent="3eGutTU6NfPmwoGJErxQ-9">
          <mxGeometry x="17.00263157894736" y="28.998688524590193" width="63" height="18" as="geometry" />
        </mxCell>
      </root>
    </mxGraphModel>
  </diagram>
</mxfile>
